<svg xmlns="http://www.w3.org/2000/svg" viewBox="0 0 58 56.5"><defs><style>.cls-1{fill:none;stroke:#fff;stroke-miterlimit:10;stroke-width:2px;}</style></defs><title>Asset 1</title><g id="Layer_2" data-name="Layer 2"><g id="Layer_1-2" data-name="Layer 1"><line class="cls-1" x1="47.22" y1="17.6" x2="57" y2="0.5"/><line class="cls-1" x1="40.61" y1="19" x2="45" y2="2.5"/><circle class="cls-1" cx="10.5" cy="10" r="1.5"/><circle class="cls-1" cx="23.5" cy="23" r="1.5"/><circle class="cls-1" cx="30.5" cy="7" r="1.5"/><path class="cls-1" d="M16.39,55.5H41.61A28,28,0,0,0,57,30.5H1A28,28,0,0,0,16.39,55.5Z"/><path class="cls-1" d="M53,24.5a7,7,0,0,0-12-4.89A8,8,0,0,0,30.14,16.5a7.35,7.35,0,0,0-1,.65,7,7,0,0,0-13,1.75A7,7,0,0,0,5,24.5"/></g></g></svg>