<svg xmlns="http://www.w3.org/2000/svg" viewBox="0 0 89.46 86.46"><defs><style>.cls-1,.cls-2{fill:none;stroke:#fff;stroke-miterlimit:10;}.cls-1{stroke-width:6px;}.cls-2{stroke-width:3px;}</style></defs><title>Asset 2</title><g id="Layer_2" data-name="Layer 2"><g id="Layer_1-2" data-name="Layer 1"><line class="cls-1" x1="71.89" y1="26.99" x2="86.46" y2="1.49"/><line class="cls-1" x1="62.03" y1="29.06" x2="68.58" y2="4.47"/><circle class="cls-2" cx="17.16" cy="15.65" r="2.24"/><circle class="cls-2" cx="36.53" cy="35.02" r="2.24"/><circle class="cls-2" cx="46.97" cy="11.18" r="2.24"/><path class="cls-1" d="M25.94,83.46H63.52A41.71,41.71,0,0,0,86.46,46.2H3A41.71,41.71,0,0,0,25.94,83.46Z"/><path class="cls-1" d="M80.5,37.26A10.43,10.43,0,0,0,62.6,30a11.89,11.89,0,0,0-16.17-4.64,11,11,0,0,0-1.48,1,10.43,10.43,0,0,0-19.31,2.61A10.42,10.42,0,0,0,9,37.26"/></g></g></svg>